<?xml version="1.0" encoding="UTF-8"?>
<svg xmlns="http://www.w3.org/2000/svg" xmlns:xlink="http://www.w3.org/1999/xlink" width="24pt" height="24pt" viewBox="0 0 24 24" version="1.1">
<g id="surface1">
<path style=" stroke:none;fill-rule:nonzero;fill:rgb(0%,0%,0%);fill-opacity:1;" d="M 0 12 L 0 24 L 11.835938 24 L 11.597656 23.886719 C 11.460938 23.828125 11.296875 23.699219 11.226562 23.605469 C 11.15625 23.511719 11.078125 23.4375 11.054688 23.4375 C 11.023438 23.4375 10.902344 23.527344 10.78125 23.640625 C 10.457031 23.929688 10.128906 24.015625 9.746094 23.902344 C 9.183594 23.726562 8.890625 23.0625 9.140625 22.507812 C 9.195312 22.382812 9.464844 22.070312 9.839844 21.683594 L 10.449219 21.070312 L 10.265625 20.960938 C 9.699219 20.640625 9.589844 19.847656 10.046875 19.386719 L 10.242188 19.195312 L 10.070312 19.027344 L 9.890625 18.851562 L 9.210938 19.269531 C 8.839844 19.5 8.46875 19.714844 8.390625 19.757812 C 8.175781 19.871094 7.832031 19.917969 7.589844 19.875 C 7.3125 19.824219 6.332031 19.382812 6.253906 19.273438 C 6.167969 19.167969 6.171875 18.980469 6.257812 18.859375 C 6.390625 18.671875 6.53125 18.683594 7.105469 18.9375 C 7.433594 19.078125 7.714844 19.171875 7.820312 19.171875 C 8.054688 19.171875 9.773438 18.148438 9.816406 17.980469 C 9.828125 17.925781 9.894531 17.792969 9.960938 17.695312 C 10.058594 17.554688 10.074219 17.507812 10.023438 17.480469 C 9.921875 17.414062 9.898438 17.421875 9.109375 17.761719 C 8.207031 18.148438 8.058594 18.191406 7.644531 18.191406 C 7.390625 18.191406 7.148438 18.136719 6.425781 17.90625 C 5.929688 17.75 5.511719 17.625 5.503906 17.625 C 5.492188 17.625 5.445312 17.578125 5.390625 17.523438 C 5.226562 17.34375 5.273438 17.101562 5.492188 16.988281 C 5.625 16.917969 5.671875 16.925781 6.539062 17.199219 C 7.714844 17.570312 7.734375 17.570312 8.621094 17.195312 C 8.996094 17.039062 9.308594 16.902344 9.320312 16.894531 C 9.328125 16.890625 9.285156 16.808594 9.226562 16.71875 L 9.121094 16.554688 L 7.875 16.539062 C 6.664062 16.519531 6.625 16.515625 6.257812 16.386719 C 6.050781 16.316406 5.671875 16.152344 5.414062 16.015625 C 5.054688 15.828125 4.9375 15.742188 4.902344 15.640625 C 4.835938 15.460938 4.917969 15.277344 5.09375 15.207031 C 5.230469 15.148438 5.269531 15.160156 5.679688 15.359375 C 6.59375 15.804688 6.605469 15.8125 7.75 15.835938 C 8.445312 15.847656 8.765625 15.839844 8.765625 15.804688 C 8.765625 15.777344 8.738281 15.625 8.699219 15.460938 C 8.664062 15.296875 8.621094 15.085938 8.605469 14.984375 L 8.574219 14.8125 L 7.519531 14.8125 C 6.566406 14.8125 6.445312 14.804688 6.285156 14.722656 C 5.953125 14.550781 5.71875 14.183594 5.71875 13.824219 C 5.71875 13.707031 5.714844 13.703125 5.464844 13.726562 C 5.324219 13.734375 5.136719 13.71875 5.039062 13.6875 C 4.8125 13.613281 4.25 13.082031 4.128906 12.824219 C 4 12.5625 4 12.1875 4.128906 11.921875 L 4.222656 11.722656 L 3.917969 11.433594 C 3.402344 10.949219 3.191406 10.34375 3.25 9.519531 C 3.300781 8.851562 3.496094 8.222656 3.9375 7.363281 C 4.789062 5.691406 6.160156 4.152344 7.433594 3.421875 C 7.785156 3.21875 8.109375 3.132812 8.109375 3.234375 C 8.109375 3.261719 7.460938 4.472656 6.671875 5.921875 C 5.574219 7.9375 5.234375 8.59375 5.230469 8.722656 C 5.222656 9.1875 5.78125 9.441406 6.097656 9.121094 C 6.191406 9.027344 6.875 7.796875 8.21875 5.304688 C 8.421875 4.921875 8.488281 4.898438 8.65625 5.148438 C 8.820312 5.394531 8.875 5.761719 8.84375 6.445312 C 8.804688 7.410156 8.53125 8.386719 8.015625 9.460938 C 7.519531 10.492188 6.964844 11.222656 6.382812 11.605469 C 6.238281 11.703125 6.097656 11.804688 6.074219 11.820312 C 6.050781 11.835938 6.109375 11.945312 6.203125 12.050781 C 6.320312 12.183594 6.390625 12.328125 6.421875 12.496094 L 6.472656 12.75 L 7.527344 12.75 C 8.105469 12.75 8.578125 12.734375 8.578125 12.710938 C 8.578125 12.695312 8.621094 12.394531 8.671875 12.046875 C 8.976562 9.980469 9.757812 7.992188 10.664062 6.992188 L 10.890625 6.742188 L 10.574219 5.234375 C 10.402344 4.40625 10.214844 3.5625 10.164062 3.359375 C 10.050781 2.929688 9.800781 2.527344 9.511719 2.289062 C 9.296875 2.113281 8.859375 1.875 8.757812 1.875 C 8.640625 1.875 8 1.542969 7.785156 1.367188 C 7.382812 1.050781 6.984375 0.535156 6.984375 0.335938 C 6.984375 0.28125 7.035156 0.179688 7.101562 0.117188 L 7.214844 0 L 0 0 Z M 0 12 "/>
<path style=" stroke:none;fill-rule:nonzero;fill:rgb(0%,0%,0%);fill-opacity:1;" d="M 7.585938 0.132812 C 7.65625 0.207031 7.804688 0.375 7.917969 0.511719 C 8.164062 0.8125 8.507812 1.035156 8.90625 1.171875 C 9.828125 1.480469 10.515625 2.125 10.777344 2.921875 C 10.828125 3.078125 11.011719 3.863281 11.179688 4.664062 C 11.347656 5.460938 11.492188 6.164062 11.507812 6.226562 C 11.53125 6.320312 11.554688 6.332031 11.675781 6.304688 C 11.851562 6.265625 12.242188 6.265625 12.417969 6.304688 L 12.539062 6.328125 L 12.746094 5.335938 C 13.3125 2.621094 13.359375 2.476562 13.941406 1.898438 C 14.304688 1.542969 14.585938 1.367188 15.097656 1.195312 C 15.648438 1.007812 15.875 0.84375 16.238281 0.398438 C 16.359375 0.242188 16.496094 0.0898438 16.539062 0.0546875 C 16.597656 0.0078125 15.703125 0 12.039062 0 L 7.460938 0 Z M 7.585938 0.132812 "/>
<path style=" stroke:none;fill-rule:nonzero;fill:rgb(0%,0%,0%);fill-opacity:1;" d="M 16.960938 0.109375 C 17.125 0.285156 17.089844 0.464844 16.832031 0.804688 C 16.433594 1.332031 16.007812 1.636719 15.371094 1.851562 C 14.933594 2 14.699219 2.140625 14.421875 2.417969 C 14.035156 2.816406 13.964844 3.023438 13.550781 4.964844 L 13.179688 6.71875 L 13.445312 7.027344 C 14.375 8.128906 15.132812 10.070312 15.402344 12.070312 C 15.445312 12.378906 15.488281 12.660156 15.496094 12.6875 C 15.511719 12.734375 15.765625 12.75 16.570312 12.75 L 17.625 12.75 L 17.625 12.617188 C 17.628906 12.449219 17.789062 12.101562 17.9375 11.945312 L 18.054688 11.820312 L 17.878906 11.722656 C 16.847656 11.1875 15.730469 9.253906 15.324219 7.3125 C 15.191406 6.679688 15.179688 5.8125 15.289062 5.4375 C 15.367188 5.195312 15.515625 4.96875 15.605469 4.96875 C 15.628906 4.96875 16.144531 5.882812 16.753906 7 C 17.359375 8.113281 17.910156 9.078125 17.980469 9.144531 C 18.167969 9.324219 18.46875 9.304688 18.664062 9.101562 C 18.964844 8.808594 18.988281 8.867188 17.375 5.910156 C 16.554688 4.414062 15.941406 3.242188 15.957031 3.203125 C 15.988281 3.117188 16.09375 3.144531 16.515625 3.355469 C 16.976562 3.585938 17.394531 3.898438 17.949219 4.429688 C 19.359375 5.785156 20.476562 7.617188 20.769531 9.070312 C 20.859375 9.511719 20.839844 10.191406 20.722656 10.546875 C 20.582031 11 20.230469 11.476562 19.90625 11.65625 C 19.835938 11.695312 19.84375 11.722656 19.945312 11.925781 C 20.085938 12.207031 20.09375 12.507812 19.972656 12.773438 C 19.855469 13.027344 19.242188 13.613281 19.011719 13.6875 C 18.914062 13.71875 18.722656 13.734375 18.582031 13.726562 L 18.328125 13.703125 L 18.328125 13.898438 C 18.328125 14.164062 18.15625 14.476562 17.910156 14.648438 L 17.710938 14.789062 L 16.609375 14.8125 L 15.5 14.835938 L 15.421875 15.238281 C 15.375 15.460938 15.324219 15.6875 15.304688 15.742188 C 15.277344 15.84375 15.277344 15.84375 16.085938 15.84375 C 17.25 15.84375 17.4375 15.804688 18.15625 15.460938 C 18.789062 15.15625 18.941406 15.121094 19.097656 15.28125 C 19.199219 15.382812 19.214844 15.617188 19.125 15.726562 C 19.039062 15.828125 18.144531 16.273438 17.761719 16.410156 C 17.484375 16.507812 17.359375 16.519531 16.21875 16.539062 L 14.976562 16.554688 L 14.875 16.679688 C 14.816406 16.75 14.769531 16.828125 14.765625 16.855469 C 14.765625 16.882812 15.054688 17.03125 15.414062 17.183594 C 16.316406 17.570312 16.375 17.570312 17.515625 17.207031 C 18.027344 17.046875 18.453125 16.9375 18.5 16.953125 C 18.671875 17.011719 18.75 17.125 18.75 17.296875 C 18.75 17.40625 18.71875 17.5 18.671875 17.546875 C 18.625 17.582031 18.167969 17.746094 17.65625 17.90625 C 16.742188 18.191406 16.71875 18.195312 16.296875 18.179688 C 15.886719 18.15625 15.828125 18.140625 15.039062 17.792969 C 14.582031 17.597656 14.179688 17.4375 14.140625 17.4375 C 14.105469 17.4375 14.046875 17.464844 14.019531 17.503906 C 13.976562 17.550781 13.988281 17.582031 14.042969 17.628906 C 14.085938 17.664062 14.164062 17.785156 14.222656 17.902344 C 14.3125 18.09375 14.390625 18.15625 15.1875 18.636719 C 16.238281 19.28125 16.203125 19.273438 16.960938 18.9375 C 17.246094 18.804688 17.511719 18.703125 17.550781 18.703125 C 17.691406 18.703125 17.875 18.914062 17.875 19.074219 C 17.875 19.285156 17.769531 19.363281 17.195312 19.613281 C 16.226562 20.03125 16.085938 20.011719 14.976562 19.339844 L 14.164062 18.851562 L 13.996094 19.027344 L 13.828125 19.199219 L 13.972656 19.339844 C 14.390625 19.730469 14.40625 20.386719 14.007812 20.796875 C 13.925781 20.878906 13.800781 20.972656 13.726562 21.003906 L 13.585938 21.0625 L 14.21875 21.699219 C 14.5625 22.050781 14.882812 22.398438 14.921875 22.476562 C 15.253906 23.15625 14.75 23.953125 13.992188 23.953125 C 13.710938 23.953125 13.503906 23.863281 13.25 23.628906 C 13.140625 23.523438 13.03125 23.4375 13.011719 23.4375 C 12.992188 23.4375 12.882812 23.539062 12.757812 23.664062 C 12.636719 23.785156 12.464844 23.910156 12.375 23.9375 C 12.253906 23.976562 13.730469 23.992188 18.109375 23.996094 L 24 24 L 24 0 L 16.859375 0 Z M 16.960938 0.109375 "/>
<path style=" stroke:none;fill-rule:nonzero;fill:rgb(0%,0%,0%);fill-opacity:1;" d="M 10.617188 8.34375 C 10.445312 8.414062 10.304688 8.609375 10.28125 8.820312 C 10.222656 9.351562 10.871094 9.65625 11.25 9.273438 C 11.6875 8.835938 11.1875 8.105469 10.617188 8.34375 Z M 10.617188 8.34375 "/>
<path style=" stroke:none;fill-rule:nonzero;fill:rgb(0%,0%,0%);fill-opacity:1;" d="M 12.929688 8.371094 C 12.640625 8.523438 12.5625 8.976562 12.777344 9.230469 C 13.125 9.640625 13.78125 9.414062 13.78125 8.875 C 13.78125 8.761719 13.75 8.617188 13.707031 8.550781 C 13.546875 8.3125 13.191406 8.226562 12.929688 8.371094 Z M 12.929688 8.371094 "/>
</g>
</svg>
